<svg width="36" height="36" viewBox="0 0 36 36" fill="none" xmlns="http://www.w3.org/2000/svg">
<g id="Icon">
<circle id="Ellipse 1" cx="17.8159" cy="18.0068" r="17.312" fill="#095FBA"/>
<path id="Vector" d="M15.5385 18.2347C16.136 19.4685 17.1336 20.4635 18.3688 21.0578C18.46 21.1009 18.5607 21.1196 18.6613 21.1119C18.7618 21.1043 18.8586 21.0706 18.9422 21.0142L20.7564 19.8023C20.8366 19.7479 20.9292 19.7147 21.0257 19.7059C21.1221 19.697 21.2193 19.7127 21.308 19.7515L24.7044 21.2102C24.8204 21.2585 24.9174 21.3436 24.9804 21.4525C25.0433 21.5613 25.0687 21.6878 25.0527 21.8125C24.9451 22.6527 24.5349 23.4249 23.8991 23.9846C23.2633 24.5442 22.4453 24.8531 21.5983 24.8533C18.9807 24.8533 16.4702 23.8134 14.6193 21.9625C12.7684 20.1115 11.7285 17.6011 11.7285 14.9835C11.7287 14.1364 12.0375 13.3185 12.5972 12.6827C13.1569 12.0468 13.9291 11.6367 14.7693 11.5291C14.894 11.5131 15.0205 11.5385 15.1293 11.6014C15.2382 11.6644 15.3233 11.7614 15.3716 11.8774L16.8303 15.281C16.8682 15.3684 16.8841 15.4637 16.8765 15.5586C16.8689 15.6535 16.8381 15.7451 16.7868 15.8253L15.5748 17.6687C15.5209 17.752 15.4892 17.8479 15.4828 17.947C15.4765 18.0461 15.4957 18.1451 15.5385 18.2347V18.2347Z" stroke="white" stroke-linecap="round" stroke-linejoin="round"/>
</g>
</svg>
